# xmcd CD database file
#
# Track frame offsets:
#	150
#	15102
#	28542
#	43796
#	63995
#	83090
#	98901
#	116087
#	142497
#	158853
#
# Disc length: 2324 seconds
#
# Revision: 0
# Processed by: cddbd v1.5.2PL0 Copyright (c) Steve Scherf et al.
# Submitted via: CDex 1.51
#
DISCID=7e09120a
DTITLE=Ida Cox - Wild Women Don't Have The Blues
DYEAR=1935
DGENRE=Jazz
TTITLE0=Wild Women Don't Have The Blues
TTITLE1=Blues For Rampart Street
TTITLE2=St Louis Blues
TTITLE3=Fogyism
TTITLE4=Hard Times Blues
TTITLE5=Cherry Pickin' Blues
TTITLE6=Hard, Oh Lord
TTITLE7=Lawdy, Lawdy Blues
TTITLE8=Death Letter Blues
TTITLE9=Mama GToes Where Papa Goes
EXTD=YEAR: 1935
EXTT0=
EXTT1=
EXTT2=
EXTT3=
EXTT4=
EXTT5=
EXTT6=
EXTT7=
EXTT8=
EXTT9=
PLAYORDER=
